<?xml version="1.0" standalone="no"?>
<!DOCTYPE svg PUBLIC "-//W3C//DTD SVG 20010904//EN"
 "http://www.w3.org/TR/2001/REC-SVG-20010904/DTD/svg10.dtd">
<svg version="1.0" xmlns="http://www.w3.org/2000/svg"
 width="400.000000pt" height="400.000000pt" viewBox="0 0 400.000000 400.000000"
 preserveAspectRatio="xMidYMid meet">

<g transform="translate(0.000000,400.000000) scale(0.100000,-0.100000)"
fill="#000000" stroke="none">
<path d="M0 2000 l0 -2000 2000 0 2000 0 0 2000 0 2000 -2000 0 -2000 0 0
-2000z m2865 686 c189 -50 317 -186 361 -383 24 -109 15 -291 -18 -389 -55
-157 -174 -268 -338 -315 -75 -21 -243 -17 -325 8 -231 72 -349 252 -348 533
0 188 39 303 142 413 67 71 135 111 224 133 70 17 240 17 302 0z m-1680 -8
c164 -3 185 -5 230 -26 59 -27 98 -62 130 -117 64 -109 28 -263 -77 -333 l-38
-25 47 -22 c59 -27 114 -87 138 -148 39 -102 -2 -248 -92 -327 -80 -70 -110
-75 -478 -75 l-320 0 -3 534 c-1 313 2 537 7 540 5 3 69 5 142 4 74 -2 215 -4
314 -5z m756 2 l89 0 0 -540 0 -540 -110 0 -110 0 0 538 c0 296 3 542 7 546 4
3 13 4 21 1 7 -3 54 -5 103 -5z m1359 -1380 l0 -110 -1315 0 -1315 0 0 103 c0
57 3 107 7 110 3 4 595 7 1315 7 l1308 0 0 -110z"/>
<path d="M2659 2510 c-147 -25 -227 -139 -237 -335 -9 -202 56 -331 196 -385
138 -53 290 8 357 143 52 107 52 324 0 426 -26 53 -92 117 -139 136 -43 17
-122 24 -177 15z"/>
<path d="M952 2502 c-9 -7 -12 -39 -10 -128 l3 -119 161 0 c183 1 214 11 247
77 22 45 11 102 -28 138 -22 21 -39 25 -133 31 -144 10 -224 10 -240 1z"/>
<path d="M942 1928 l3 -143 124 -3 c68 -1 156 2 195 7 63 9 75 14 104 45 27
31 32 43 32 86 0 63 -20 104 -63 127 -26 15 -63 19 -215 21 l-183 4 3 -144z"/>
</g>
</svg>
